HIERARCHY
ROOT Hips
{
	OFFSET	0.00	0.00	0.00
	CHANNELS 6 Xposition Yposition Zposition Zrotation Xrotation Yrotation
	JOINT LeftUpLeg
	{
		OFFSET	 0.126116	-0.014019	-0.065224
		CHANNELS 3 Zrotation Xrotation Yrotation
		JOINT LeftLeg
		{
			OFFSET	 0.000000	 0.000000	 0.569914
			CHANNELS 3 Zrotation Xrotation Yrotation
			JOINT LeftFoot
			{
				OFFSET	 0.000000	 0.000000	 0.544423
				CHANNELS 3 Zrotation Xrotation Yrotation
				JOINT LeftToeBase
				{
					OFFSET	 0.000000	 0.000000	 0.207117
					CHANNELS 3 Zrotation Xrotation Yrotation
					End Site
					{
						OFFSET	 0.000000	 0.000000	 0.207117
					}
				}
			}
		}
	}
	JOINT RightUpLeg
	{
		OFFSET	-0.124023	-0.008373	-0.065224
		CHANNELS 3 Zrotation Xrotation Yrotation
		JOINT RightLeg
		{
			OFFSET	 0.000000	 0.000000	 0.570047
			CHANNELS 3 Zrotation Xrotation Yrotation
			JOINT RightFoot
			{
				OFFSET	 0.000000	 0.000000	 0.544354
				CHANNELS 3 Zrotation Xrotation Yrotation
				JOINT RightToeBase
				{
					OFFSET	 0.000000	 0.000000	 0.207540
					CHANNELS 3 Zrotation Xrotation Yrotation
					End Site
					{
						OFFSET	 0.000000	 0.000000	 0.207540
					}
				}
			}
		}
	}
	JOINT Spine
	{
		OFFSET	 0.000184	-0.007763	 0.117403
		CHANNELS 3 Zrotation Xrotation Yrotation
		JOINT Spine1
		{
			OFFSET	 0.000000	 0.000000	 0.137269
			CHANNELS 3 Zrotation Xrotation Yrotation
			JOINT Spine2
			{
				OFFSET	 0.000000	 0.000000	 0.156879
				CHANNELS 3 Zrotation Xrotation Yrotation
				JOINT LeftShoulder
				{
					OFFSET	 0.080501	-0.002496	 0.160144
					CHANNELS 3 Zrotation Xrotation Yrotation
					JOINT LeftArm
					{
						OFFSET	 0.000000	 0.000000	 0.164363
						CHANNELS 3 Zrotation Xrotation Yrotation
						JOINT LeftForeArm
						{
							OFFSET	 0.000000	 0.000000	 0.364576
							CHANNELS 3 Zrotation Xrotation Yrotation
							JOINT LeftHand
							{
								OFFSET	 0.000000	 0.000000	 0.360812
								CHANNELS 3 Zrotation Xrotation Yrotation
								JOINT LeftHandIndex1
								{
									OFFSET	 0.000000	 0.000000	 0.086006
									CHANNELS 3 Zrotation Xrotation Yrotation
									JOINT LeftHandIndex2
									{
										OFFSET	 0.000000	 0.000000	 0.047237
										CHANNELS 3 Zrotation Xrotation Yrotation
										JOINT LeftHandIndex3
										{
											OFFSET	-0.004284	-0.000551	 0.038165
											CHANNELS 3 Zrotation Xrotation Yrotation
											End Site
											{
												OFFSET	-0.004284	-0.000551	 0.038165
											}
										}
									}
								}
							}
						}
					}
				}
				JOINT Neck
				{
					OFFSET	 0.000000	 0.000000	 0.176489
					CHANNELS 3 Zrotation Xrotation Yrotation
					JOINT Head
					{
						OFFSET	 0.000000	-0.001747	 0.077940
						CHANNELS 3 Zrotation Xrotation Yrotation
						End Site
						{
							OFFSET	 0.000000	-0.001747	 0.077940
						}
					}
				}
				JOINT RightShoulder
				{
					OFFSET	-0.080363	 0.000306	 0.159706
					CHANNELS 3 Zrotation Xrotation Yrotation
					JOINT RightArm
					{
						OFFSET	 0.000000	 0.000000	 0.164196
						CHANNELS 3 Zrotation Xrotation Yrotation
						JOINT RightForeArm
						{
							OFFSET	 0.000000	 0.000000	 0.365611
							CHANNELS 3 Zrotation Xrotation Yrotation
							JOINT RightHand
							{
								OFFSET	 0.000000	 0.000000	 0.360648
								CHANNELS 3 Zrotation Xrotation Yrotation
								JOINT RightHandIndex1
								{
									OFFSET	 0.000000	 0.000000	 0.069977
									CHANNELS 3 Zrotation Xrotation Yrotation
									JOINT RightHandIndex2
									{
										OFFSET	 0.000000	 0.000000	 0.052305
										CHANNELS 3 Zrotation Xrotation Yrotation
										JOINT RightHandIndex3
										{
											OFFSET	 0.009002	-0.000782	 0.042196
											CHANNELS 3 Zrotation Xrotation Yrotation
											End Site
											{
												OFFSET	 0.009002	-0.000782	 0.042196
											}
										}
									}
								}
							}
						}
					}
				}
			}
		}
	}
}
MOTION
Frames:    13
Frame Time: 0.03333334
-0.461000	-0.033333	 1.274597	 179.461100	-2.783336	 5.147889	-2.663947	-2.290537	 178.177000	-8.454398	-19.600980	-3.046859	 25.755960	 75.994480	-37.644820	-2.385833	 28.452760	 0.000004	 40.758900	-3.039727	 170.711200	 2.794199	-7.721135	 0.170867	-5.323176	 63.279750	 20.928700	 2.384659	 28.388700	-0.000001	-8.995980	 7.685124	-6.698717	-3.509726	 5.668830	-13.433750	 14.153090	-2.361266	 24.242090	-91.776240	 78.527400	-180.000000	-77.426290	 6.397614	-0.542307	 0.304654	-2.251691	-44.500560	-0.333028	-13.086190	-1.935243	-4.130319	 21.525730	 0.991547	-5.167930	 0.731704	 3.519349	-1.378229	 35.397820	-2.634230	-2.899702	 0.826267	 1.815078	-10.420210	-28.691740	-12.507470	 89.782040	 78.203870	-180.000000	-27.018930	-8.290228	-16.789870	-13.198980	-9.736349	 53.463710	 13.838910	 11.332230	 131.070500	 5.716227	 19.173190	-3.685159	 5.027444	 0.246877	-9.377972	-2.350882	 35.473990	 5.254307
-0.461367	-0.033598	 1.274030	 179.547800	-2.818671	 5.554869	-0.829228	-3.431816	 177.605000	-9.577457	-22.121500	-3.852558	 30.492580	 77.351210	-41.694630	-2.385833	 28.452760	 0.000004	 40.345190	-4.660108	 170.626100	 3.327326	-11.012810	 0.344858	-7.608680	 64.302190	 22.979690	 2.384659	 28.388700	-0.000001	-8.978301	 7.711719	-7.352217	-3.758216	 6.493098	-13.395020	 14.376380	-3.542726	 24.700820	-91.776190	 78.527400	-180.000000	-81.245490	 10.028580	 7.751930	-0.618997	-2.381934	-60.159620	-0.720268	-12.443260	-2.087747	-4.130319	 21.525730	 0.991547	-5.167930	 0.731704	 3.519349	-1.378229	 35.397820	-2.634230	-3.131309	 1.178940	 2.092118	-11.035030	-29.931500	-13.728580	 89.782160	 78.203850	 179.999900	-27.548220	-8.323488	-20.018580	-11.023510	-11.335390	 66.154850	 14.443480	 11.127080	 130.173800	 5.716227	 19.173190	-3.685159	 5.027444	 0.246877	-9.377972	-2.350882	 35.473990	 5.254307
-0.462746	-0.035307	 1.268924	-179.853000	-1.938945	 5.536933	-2.878723	-8.777958	 178.571200	-10.716370	-33.432570	-6.269922	 55.259590	 83.212280	-66.787170	-2.385833	 28.452760	 0.000004	 38.394560	-11.504250	 173.023200	 3.830965	-26.853620	 1.043138	-7.479483	 73.924210	 22.218530	 2.384659	 28.388700	-0.000001	-10.969200	 6.573628	-7.656109	-5.331368	 8.290763	-13.345690	 14.732980	-4.365709	 25.206820	-91.776160	 78.527380	 180.000000	-61.670730	 30.883670	 31.327600	-3.538975	-2.458998	-122.363100	-0.545405	-12.668560	-2.110072	-4.130319	 21.525730	 0.991547	-5.167930	 0.731704	 3.519349	-1.378229	 35.397820	-2.634230	-3.109222	 1.001412	 2.247363	-11.046090	-29.497660	-14.403510	 89.782100	 78.203900	 180.000000	-10.622780	 15.618740	-10.480140	-1.298714	-10.307230	 115.003300	 5.821496	 26.137750	 66.541580	 5.716227	 19.173190	-3.685159	 5.027444	 0.246877	-9.377972	-2.350882	 35.473990	 5.254307
-0.465914	-0.038168	 1.261006	-178.774600	-0.860872	 5.119238	-5.147493	-13.863760	-179.473800	-12.988760	-44.866530	-9.649120	 125.625900	 83.474870	-137.530500	-2.385833	 28.452760	 0.000004	 36.937630	-16.108320	 177.071800	 4.802650	-39.789240	 2.100444	-1.393028	 82.612890	 15.110540	 2.384659	 28.388700	-0.000001	-14.166700	 5.108448	-7.495508	-7.461401	 10.149680	-12.754020	 14.610920	-4.296884	 24.871160	-91.776180	 78.527400	-180.000000	 48.493930	 50.116200	-77.949530	-2.635265	-2.781229	-103.301000	-0.570441	-12.509580	-2.126026	-4.130319	 21.525730	 0.991547	-5.167930	 0.731704	 3.519349	-1.378229	 35.397820	-2.634230	-2.987958	-0.225368	 0.578688	-10.447500	-27.727330	-10.777470	 89.782100	 78.203890	 180.000000	-63.749640	 41.184780	 86.649560	-9.108520	-9.856758	 72.832920	-22.684700	 19.263480	 29.945410	 5.716227	 19.173190	-3.685159	 5.027444	 0.246877	-9.377972	-2.350882	 35.473990	 5.254307
-0.475505	-0.041567	 1.258894	-177.671700	-0.837404	 4.633607	-8.317908	-14.488670	-177.810200	-12.986090	-46.329350	-9.886693	 129.709900	 82.969990	-141.920300	-2.385833	 28.452760	 0.000004	 34.589710	-16.371350	 178.829900	 5.484952	-42.475790	 2.677979	 1.957177	 83.518470	 11.335570	 2.384659	 28.388700	-0.000001	-15.115610	 4.558861	-7.178307	-7.841948	 11.179410	-11.580120	 14.548850	-5.272050	 24.672120	-91.776180	 78.527380	 180.000000	 51.364010	 47.265030	-86.870670	-1.862121	-2.676248	-87.618420	-0.727752	-11.972160	-2.157276	-4.130319	 21.525730	 0.991547	-5.167930	 0.731704	 3.519349	-1.378229	 35.397820	-2.634230	-3.814357	 1.741085	 1.979442	-11.543400	-29.438790	-14.013570	 89.782080	 78.203870	-180.000000	-68.421770	 39.541610	 102.715200	-12.549690	-7.974836	 50.878440	-24.988130	 10.458780	 35.258160	 5.716227	 19.173190	-3.685159	 5.027444	 0.246877	-9.377972	-2.350882	 35.473990	 5.254307
-0.490153	-0.044978	 1.258161	-175.907000	-1.292873	 5.128567	-12.511540	-13.467980	-176.984100	-11.688110	-44.440540	-8.613391	 115.120100	 84.184150	-127.724100	-2.385833	 28.452760	 0.000004	 31.564850	-17.299900	 179.395300	 6.770916	-44.847620	 3.706413	 1.545651	 81.521450	 10.974390	 2.384659	 28.388700	-0.000001	-15.327520	 5.126588	-6.776128	-6.024753	 9.507591	-11.267670	 13.829670	-4.064408	 24.101570	-91.776170	 78.527380	-180.000000	 45.886140	 47.028480	-72.050950	-2.161203	-2.628027	-94.282400	-0.713211	-11.616560	-2.177218	-4.130319	 21.525730	 0.991547	-5.167930	 0.731704	 3.519349	-1.378229	 35.397820	-2.634230	-4.078183	 1.743813	 2.043137	-11.521650	-28.417560	-13.682880	 89.782060	 78.203850	-180.000000	-59.514270	 42.862220	 86.248250	-8.478656	-9.819993	 76.483190	-16.601220	 19.313190	 21.938540	 5.716227	 19.173190	-3.685159	 5.027444	 0.246877	-9.377972	-2.350882	 35.473990	 5.254307
-0.497502	-0.046757	 1.258018	-174.502900	-1.546644	 4.527007	-15.913110	-12.498030	-175.234200	-10.360570	-42.542290	-7.433518	 93.078800	 84.963360	-106.029400	-2.385833	 28.452760	 0.000004	 31.866660	-19.672080	-178.173300	 7.042069	-49.975730	 4.232013	 12.025540	 81.636670	 0.061669	 2.384659	 28.388700	-0.000001	-14.536130	 6.010988	-4.814458	-3.280774	 6.359873	-11.214710	 12.651330	-1.647738	 22.942740	-91.776250	 78.527360	-179.999900	 52.541660	 44.185860	-80.228910	-1.862891	-2.652282	-88.030550	-0.627743	-11.197880	-2.204882	-4.130319	 21.525730	 0.991547	-5.167930	 0.731704	 3.519349	-1.378229	 35.397820	-2.634230	-4.057224	-0.106110	 0.672756	-10.920530	-25.708740	-10.151850	 89.782100	 78.203890	 180.000000	-62.335800	 41.246600	 92.778020	-8.459591	-9.802466	 76.751070	-13.853630	 15.665200	 12.032350	 5.716227	 19.173190	-3.685159	 5.027444	 0.246877	-9.377972	-2.350882	 35.473990	 5.254307
-0.493821	-0.046713	 1.261307	-173.298100	-2.399282	 4.615869	-19.598310	-10.809070	-174.571900	-9.267615	-40.946270	-6.477676	 78.183410	 84.917240	-91.679520	-2.385833	 28.452760	 0.000004	 34.361890	-20.540310	-176.687900	 5.112904	-48.081570	 2.673044	 20.044090	 78.528480	-7.948123	 2.384659	 28.388700	-0.000001	-12.711000	 7.629350	-4.889256	-0.572471	 5.895998	-9.150022	 12.671440	-2.208429	 22.046020	-91.776260	 78.527350	-179.999900	 55.383690	 42.678080	-85.323500	-1.840225	-2.575428	-87.675550	-0.649993	-10.703080	-2.239356	-4.130319	 21.525730	 0.991547	-5.167930	 0.731704	 3.519349	-1.378229	 35.397820	-2.634230	-4.234468	 0.041089	 1.124015	-11.114180	-25.777660	-10.875380	 89.782100	 78.203830	-180.000000	-65.104570	 40.730680	 95.423840	-8.911958	-9.256415	 73.550950	-14.934810	 7.715630	 9.822854	 5.716227	 19.173190	-3.685159	 5.027444	 0.246877	-9.377972	-2.350882	 35.473990	 5.254307
-0.483373	-0.043569	 1.265592	-172.528200	-3.022779	 5.490526	-23.231520	-9.467852	-174.999700	-8.347317	-40.360810	-5.796389	 61.604020	 85.271100	-75.461040	-2.385833	 28.452760	 0.000004	 35.910870	-20.636740	-176.470800	 4.176220	-41.755440	 1.767864	 16.963340	 74.377740	-4.677031	 2.384659	 28.388700	-0.000001	-10.382020	 9.118676	-6.034725	 1.952756	 6.657977	-8.695544	 13.022610	-3.654167	 22.622680	-91.776120	 78.527400	 180.000000	 56.418520	 41.370860	-86.642420	-1.856376	-2.544068	-88.191580	-0.651882	-9.996808	-2.280541	-4.130319	 21.525730	 0.991547	-5.167930	 0.731704	 3.519349	-1.378229	 35.397820	-2.634230	-4.570690	 0.971417	 2.075196	-11.641980	-26.988340	-12.806080	 89.782200	 78.203870	 179.999900	-65.888500	 41.217930	 94.886780	-8.856605	-8.885233	 73.355410	-15.899080	 1.711931	 7.024875	 5.716227	 19.173190	-3.685159	 5.027444	 0.246877	-9.377972	-2.350882	 35.473990	 5.254307
-0.470188	-0.038123	 1.269020	-171.727600	-3.084707	 5.509907	-26.853230	-9.000848	-174.977300	-7.263129	-39.998960	-5.047817	 43.788360	 84.811220	-58.177890	-2.385833	 28.452760	 0.000004	 39.608250	-20.403570	-175.936800	 2.455839	-36.432830	 0.554236	 20.011740	 72.593190	-6.761790	 2.384659	 28.388700	-0.000001	-8.504297	 10.162100	-6.870287	 4.211069	 6.504105	-7.600695	 13.000340	-4.317324	 22.274520	-91.776250	 78.527380	-179.999900	 57.085400	 40.345710	-87.433560	-1.862298	-2.506573	-88.448520	-0.662806	-9.470004	-2.311095	-4.130319	 21.525730	 0.991547	-5.167930	 0.731704	 3.519349	-1.378229	 35.397820	-2.634230	-4.739284	 0.224496	 1.925900	-11.722210	-26.817030	-11.998180	 89.782100	 78.203850	 180.000000	-66.337100	 41.840270	 94.055230	-8.922653	-9.157969	 73.582820	-16.817700	-3.418146	 4.563035	 5.716227	 19.173190	-3.685159	 5.027444	 0.246877	-9.377972	-2.350882	 35.473990	 5.254307
-0.456252	-0.030875	 1.270978	-170.887900	-3.317571	 5.464377	-30.531520	-8.419087	-174.864000	-6.088586	-39.944730	-4.280923	 33.403340	 84.486370	-48.413830	-2.385833	 28.452760	 0.000004	 46.017540	-20.201400	-176.079000	-1.007649	-34.013810	-1.416073	 28.423120	 72.988280	-12.706540	 2.384659	 28.388700	-0.000001	-6.907854	 11.061340	-7.756161	 6.133545	 6.138568	-5.811569	 12.819620	-4.901901	 21.377530	-91.776210	 78.527380	-180.000000	 57.634360	 39.477150	-87.706470	-1.866808	-2.419862	-88.594500	-0.725747	-9.023293	-2.332052	-4.130319	 21.525730	 0.991547	-5.167930	 0.731704	 3.519349	-1.378229	 35.397820	-2.634230	-5.099873	-0.776813	 2.136630	-11.894720	-26.379160	-11.540350	 89.782120	 78.203870	 180.000000	-66.458980	 42.130720	 93.198560	-8.925103	-9.317490	 73.939810	-17.495620	-8.084788	 1.959011	 5.716227	 19.173190	-3.685159	 5.027444	 0.246877	-9.377972	-2.350882	 35.473990	 5.254307
-0.445459	-0.025056	 1.272072	-170.173200	-3.661313	 5.774574	-34.455560	-7.880959	-174.672000	-4.774927	-40.261880	-3.454606	 25.992640	 84.259700	-41.798740	-2.385833	 28.452760	 0.000004	 50.097430	-20.225050	-176.719800	-3.122793	-32.719590	-2.514873	 31.130010	 71.887520	-13.881510	 2.384659	 28.388700	-0.000001	-5.725026	 11.868130	-8.596431	 7.535234	 6.011174	-4.807723	 12.632740	-5.438659	 20.892310	-91.776210	 78.527350	-180.000000	 57.991540	 38.887540	-87.789700	-1.863989	-2.428142	-88.626660	-0.695926	-8.612364	-2.353802	-4.130319	 21.525730	 0.991547	-5.167930	 0.731704	 3.519349	-1.378229	 35.397820	-2.634230	-5.458264	-1.418736	 2.307438	-12.121300	-26.349770	-11.088080	 89.782050	 78.203920	-180.000000	-66.380810	 42.220110	 92.455650	-8.741621	-8.841777	 74.235880	-17.767480	-11.874010	-0.238825	 5.716227	 19.173190	-3.685159	 5.027444	 0.246877	-9.377972	-2.350882	 35.473990	 5.254307
-0.439685	-0.022136	 1.272700	-170.009700	-3.948608	 5.668568	-37.750230	-7.682987	-173.861200	-3.758404	-40.102420	-2.785734	 24.259730	 82.869800	-41.046070	-2.385833	 28.452760	 0.000004	 48.775500	-20.223880	-177.147100	-3.009054	-32.438960	-2.434414	 29.454260	 69.609630	-12.672730	 2.384659	 28.388700	-0.000001	-4.778526	 12.174300	-9.103869	 8.013637	 6.814188	-3.708035	 12.767930	-6.708291	 20.687770	-91.776190	 78.527360	-180.000000	 58.015830	 38.325890	-87.386490	-1.868455	-2.384601	-88.738270	-0.729702	-8.118690	-2.371629	-4.130319	 21.525730	 0.991547	-5.167930	 0.731704	 3.519349	-1.378229	 35.397820	-2.634230	-5.663058	-0.932431	 2.424792	-12.466060	-27.624700	-11.199780	 89.782180	 78.203850	 179.999900	-66.884780	 42.471400	 92.314560	-8.816509	-9.065840	 74.225080	-18.956510	-14.040610	-1.473583	 5.716227	 19.173190	-3.685159	 5.027444	 0.246877	-9.377972	-2.350882	 35.473990	 5.254307
